# xmcd CD database file generated by MAGIX-FreeDB-player v3.0beta1
#
# Track frame offsets:
#	150
#	25345
#	43155
#	50318
#	76442
#	89013
#	108371
#	119569
#	138445
#	161229
#	183145
#	211894
#	237439
#	255910
#	276774
#	290292
#	308457
#	325917
#
# Disc length: 4651
#
# Revision: 0
# Processed by: cddbd v1.5.2PL0 Copyright (c) Steve Scherf et al.
# Submitted via: MAGIX-FreeDB-player v3.0beta1
#
DISCID=fb122912
DTITLE=Spitzer - Cyberkrank CD3
DYEAR=2016
DGENRE=Hörbuch
TTITLE0=318
TTITLE1=317
TTITLE2=215
TTITLE3=305
TTITLE4=314
TTITLE5=313
TTITLE6=312
TTITLE7=316
TTITLE8=309
TTITLE9=301
TTITLE10=311
TTITLE11=308
TTITLE12=307
TTITLE13=306
TTITLE14=304
TTITLE15=303
TTITLE16=302
TTITLE17=310
EXTD=
EXTT0=
EXTT1=
EXTT2=
EXTT3=
EXTT4=
EXTT5=
EXTT6=
EXTT7=
EXTT8=
EXTT9=
EXTT10=
EXTT11=
EXTT12=
EXTT13=
EXTT14=
EXTT15=
EXTT16=
EXTT17=
PLAYORDER=
